{
	"asset":{
		"generator":"Khronos glTF Blender I/O v4.1.63",
		"version":"2.0"
	},
	"extensionsUsed":[
		"KHR_materials_clearcoat"
	],
	"scene":0,
	"scenes":[
		{
			"name":"Scene",
			"nodes":[
				0,
				1,
				2,
				3
			]
		}
	],
	"nodes":[
		{
			"mesh":0,
			"name":"Cube.001",
			"rotation":[
				0.17116379737854004,
				-0.04841477796435356,
				-0.9585579633712769,
				0.22254355251789093
			],
			"scale":[
				2.3065707683563232,
				0.07739979773759842,
				0.04793861135840416
			],
			"translation":[
				0,
				0.38150542974472046,
				0
			]
		},
		{
			"mesh":1,
			"name":"Cube.002",
			"rotation":[
				0.95862877368927,
				-0.22555950284004211,
				-0.17076662182807922,
				0.03150444105267525
			],
			"scale":[
				2.3065707683563232,
				0.07739979773759842,
				0.04793861508369446
			],
			"translation":[
				0,
				0.38150542974472046,
				0
			]
		},
		{
			"mesh":2,
			"name":"Cube.003",
			"rotation":[
				-0.9585579633712769,
				0.22254355251789093,
				-0.17116381227970123,
				0.04841478914022446
			],
			"scale":[
				2.3065707683563232,
				0.07739979773759842,
				0.04793861508369446
			],
			"translation":[
				0,
				0.38150542974472046,
				0
			]
		},
		{
			"mesh":3,
			"name":"Cube.004",
			"rotation":[
				-0.16700479388237,
				0.03061937354505062,
				-0.959291398525238,
				0.2256813943386078
			],
			"scale":[
				2.3065707683563232,
				0.07739979773759842,
				0.04793861135840416
			],
			"translation":[
				0,
				0.38150542974472046,
				0
			]
		}
	],
	"materials":[
		{
			"doubleSided":true,
			"emissiveFactor":[
				0.0010000000474974513,
				0.0010000000474974513,
				0.0010000000474974513
			],
			"extensions":{
				"KHR_materials_clearcoat":{
					"clearcoatFactor":0.15709969401359558,
					"clearcoatRoughnessFactor":0.28679758310317993
				}
			},
			"name":"Material.003",
			"pbrMetallicRoughness":{
				"baseColorFactor":[
					1,
					1,
					1,
					0.32024216651916504
				],
				"baseColorTexture":{
					"index":0
				},
				"metallicFactor":0.963746190071106,
				"roughnessFactor":0.3232628107070923
			}
		},
		{
			"doubleSided":true,
			"emissiveFactor":[
				0.0010000000474974513,
				0.0010000000474974513,
				0.0010000000474974513
			],
			"extensions":{
				"KHR_materials_clearcoat":{
					"clearcoatFactor":0.15709969401359558,
					"clearcoatRoughnessFactor":0.28679758310317993
				}
			},
			"name":"Material.004",
			"pbrMetallicRoughness":{
				"baseColorFactor":[
					1,
					1,
					1,
					0.32024216651916504
				],
				"baseColorTexture":{
					"index":1
				},
				"metallicFactor":0.963746190071106,
				"roughnessFactor":0.3232628107070923
			}
		},
		{
			"doubleSided":true,
			"emissiveFactor":[
				0.0010000000474974513,
				0.0010000000474974513,
				0.0010000000474974513
			],
			"extensions":{
				"KHR_materials_clearcoat":{
					"clearcoatFactor":0.15709969401359558,
					"clearcoatRoughnessFactor":0.28679758310317993
				}
			},
			"name":"Material.007",
			"pbrMetallicRoughness":{
				"baseColorFactor":[
					1,
					1,
					1,
					0.32024216651916504
				],
				"baseColorTexture":{
					"index":2
				},
				"metallicFactor":0.963746190071106,
				"roughnessFactor":0.3232628107070923
			}
		},
		{
			"doubleSided":true,
			"emissiveFactor":[
				0.0010000000474974513,
				0.0010000000474974513,
				0.0010000000474974513
			],
			"extensions":{
				"KHR_materials_clearcoat":{
					"clearcoatFactor":0.15709969401359558,
					"clearcoatRoughnessFactor":0.28679758310317993
				}
			},
			"name":"Material.008",
			"pbrMetallicRoughness":{
				"baseColorFactor":[
					1,
					1,
					1,
					0.32024216651916504
				],
				"baseColorTexture":{
					"index":3
				},
				"metallicFactor":0.963746190071106,
				"roughnessFactor":0.3232628107070923
			}
		}
	],
	"meshes":[
		{
			"name":"Cube.008",
			"primitives":[
				{
					"attributes":{
						"POSITION":0,
						"NORMAL":1,
						"TEXCOORD_0":2
					},
					"indices":3,
					"material":0
				}
			]
		},
		{
			"name":"Cube.002",
			"primitives":[
				{
					"attributes":{
						"POSITION":4,
						"NORMAL":5,
						"TEXCOORD_0":6
					},
					"indices":7,
					"material":1
				}
			]
		},
		{
			"name":"Cube.003",
			"primitives":[
				{
					"attributes":{
						"POSITION":8,
						"NORMAL":9,
						"TEXCOORD_0":10
					},
					"indices":11,
					"material":2
				}
			]
		},
		{
			"name":"Cube.004",
			"primitives":[
				{
					"attributes":{
						"POSITION":12,
						"NORMAL":13,
						"TEXCOORD_0":14
					},
					"indices":7,
					"material":3
				}
			]
		}
	],
	"textures":[
		{
			"sampler":0,
			"source":0
		},
		{
			"sampler":0,
			"source":0
		},
		{
			"sampler":0,
			"source":0
		},
		{
			"sampler":0,
			"source":0
		}
	],
	"images":[
		{
			"mimeType":"image/jpeg",
			"name":"240_F_660562986_g3024caUDlCoa3OAJPHegmwdPY47tcIS",
			"uri":"textures/240_F_660562986_g3024caUDlCoa3OAJPHegmwdPY47tcIS.jpg"
		}
	],
	"accessors":[
		{
			"bufferView":0,
			"componentType":5126,
			"count":92,
			"max":[
				0.40908491611480713,
				0.4910788834095001,
				0.5282590985298157
			],
			"min":[
				-0.38650020956993103,
				-0.5230933427810669,
				-0.49138203263282776
			],
			"type":"VEC3"
		},
		{
			"bufferView":1,
			"componentType":5126,
			"count":92,
			"type":"VEC3"
		},
		{
			"bufferView":2,
			"componentType":5126,
			"count":92,
			"type":"VEC2"
		},
		{
			"bufferView":3,
			"componentType":5123,
			"count":192,
			"type":"SCALAR"
		},
		{
			"bufferView":4,
			"componentType":5126,
			"count":92,
			"max":[
				0.40908485651016235,
				0.49107983708381653,
				0.5282579660415649
			],
			"min":[
				-0.38650038838386536,
				-0.5230923295021057,
				-0.4913833439350128
			],
			"type":"VEC3"
		},
		{
			"bufferView":5,
			"componentType":5126,
			"count":92,
			"type":"VEC3"
		},
		{
			"bufferView":6,
			"componentType":5126,
			"count":92,
			"type":"VEC2"
		},
		{
			"bufferView":7,
			"componentType":5123,
			"count":192,
			"type":"SCALAR"
		},
		{
			"bufferView":8,
			"componentType":5126,
			"count":92,
			"max":[
				0.40908491611480713,
				0.4910792112350464,
				0.5282595157623291
			],
			"min":[
				-0.38650038838386536,
				-0.5230931043624878,
				-0.49138182401657104
			],
			"type":"VEC3"
		},
		{
			"bufferView":9,
			"componentType":5126,
			"count":92,
			"type":"VEC3"
		},
		{
			"bufferView":10,
			"componentType":5126,
			"count":92,
			"type":"VEC2"
		},
		{
			"bufferView":11,
			"componentType":5123,
			"count":192,
			"type":"SCALAR"
		},
		{
			"bufferView":12,
			"componentType":5126,
			"count":92,
			"max":[
				0.40908491611480713,
				0.4910789430141449,
				0.5282595157623291
			],
			"min":[
				-0.3865003287792206,
				-0.5230933427810669,
				-0.49138179421424866
			],
			"type":"VEC3"
		},
		{
			"bufferView":13,
			"componentType":5126,
			"count":92,
			"type":"VEC3"
		},
		{
			"bufferView":14,
			"componentType":5126,
			"count":92,
			"type":"VEC2"
		}
	],
	"bufferViews":[
		{
			"buffer":0,
			"byteLength":1104,
			"byteOffset":0,
			"target":34962
		},
		{
			"buffer":0,
			"byteLength":1104,
			"byteOffset":1104,
			"target":34962
		},
		{
			"buffer":0,
			"byteLength":736,
			"byteOffset":2208,
			"target":34962
		},
		{
			"buffer":0,
			"byteLength":384,
			"byteOffset":2944,
			"target":34963
		},
		{
			"buffer":0,
			"byteLength":1104,
			"byteOffset":3328,
			"target":34962
		},
		{
			"buffer":0,
			"byteLength":1104,
			"byteOffset":4432,
			"target":34962
		},
		{
			"buffer":0,
			"byteLength":736,
			"byteOffset":5536,
			"target":34962
		},
		{
			"buffer":0,
			"byteLength":384,
			"byteOffset":6272,
			"target":34963
		},
		{
			"buffer":0,
			"byteLength":1104,
			"byteOffset":6656,
			"target":34962
		},
		{
			"buffer":0,
			"byteLength":1104,
			"byteOffset":7760,
			"target":34962
		},
		{
			"buffer":0,
			"byteLength":736,
			"byteOffset":8864,
			"target":34962
		},
		{
			"buffer":0,
			"byteLength":384,
			"byteOffset":9600,
			"target":34963
		},
		{
			"buffer":0,
			"byteLength":1104,
			"byteOffset":9984,
			"target":34962
		},
		{
			"buffer":0,
			"byteLength":1104,
			"byteOffset":11088,
			"target":34962
		},
		{
			"buffer":0,
			"byteLength":736,
			"byteOffset":12192,
			"target":34962
		}
	],
	"samplers":[
		{
			"magFilter":9729,
			"minFilter":9987
		}
	],
	"buffers":[
		{
			"byteLength":12928,
			"uri":"table1.bin"
		}
	]
}
